<?xml version="1.0" encoding="UTF-8" standalone="no"?>
<!-- Created with Inkscape (http://www.inkscape.org/) -->

<svg
   width="210mm"
   height="210mm"
   viewBox="0 0 210 210"
   version="1.1"
   id="svg1"
   inkscape:version="1.4 (e7c3feb100, 2024-10-09)"
   sodipodi:docname="bisonwatchlogo2.svg"
   inkscape:export-filename="bisonwatch_logo2.png"
   inkscape:export-xdpi="96"
   inkscape:export-ydpi="96"
   xmlns:inkscape="http://www.inkscape.org/namespaces/inkscape"
   xmlns:sodipodi="http://sodipodi.sourceforge.net/DTD/sodipodi-0.dtd"
   xmlns="http://www.w3.org/2000/svg"
   xmlns:svg="http://www.w3.org/2000/svg">
  <sodipodi:namedview
     id="namedview1"
     pagecolor="#ffffff"
     bordercolor="#000000"
     borderopacity="0.25"
     inkscape:showpageshadow="2"
     inkscape:pageopacity="0.0"
     inkscape:pagecheckerboard="0"
     inkscape:deskcolor="#d1d1d1"
     inkscape:document-units="mm"
     showguides="false"
     inkscape:lockguides="false"
     inkscape:zoom="0.64379276"
     inkscape:cx="410.06985"
     inkscape:cy="453.56211"
     inkscape:window-width="1283"
     inkscape:window-height="834"
     inkscape:window-x="158"
     inkscape:window-y="29"
     inkscape:window-maximized="0"
     inkscape:current-layer="layer1" />
  <defs
     id="defs1" />
  <g
     inkscape:label="Layer 1"
     inkscape:groupmode="layer"
     id="layer1">
    <circle
       style="fill:none;stroke:#000200;stroke-width:1.35299;stroke-linejoin:round;stroke-miterlimit:1.1;stroke-dasharray:none"
       id="path2"
       cx="105"
       cy="105"
       r="105" />
    <path
       style="fill:none;stroke:#000200;stroke-width:1.35299;stroke-linejoin:round;stroke-miterlimit:1.1;stroke-dasharray:none"
       d="M 17.5313,153.409 182.774,170.133"
       id="path3" />
    <path
       style="fill:none;stroke:#000200;stroke-width:1.35299;stroke-linejoin:round;stroke-miterlimit:1.1;stroke-dasharray:none"
       d="M 90.0201,164.981 206.479,139.929"
       id="path4" />
    <path
       style="fill:none;stroke:#000200;stroke-width:1.35299;stroke-linejoin:round;stroke-miterlimit:1.1;stroke-dasharray:none"
       d="m 151.717,157.08 -0.334,-7.777 -4.787,11.09 -23.789,-85.4737 0.187,9.27 1.348,-38.6181 -45.2924,9.9397 14.5323,36.8311 -4.0379,1.1093 17.575,72.9817"
       id="path5"
       sodipodi:nodetypes="cccccccccc" />
    <path
       style="fill:none;stroke:#000200;stroke-width:1.35299;stroke-linejoin:round;stroke-miterlimit:1.1;stroke-dasharray:none"
       d="M 100.497,84.6788 121.579,67.3532"
       id="path6" />
    <path
       style="fill:none;stroke:#000200;stroke-width:1.35299;stroke-linejoin:round;stroke-miterlimit:1.1;stroke-dasharray:none"
       d="M 131.672,85.9788 92.9589,94.4785"
       id="path7" />
    <path
       style="fill:none;stroke:#000200;stroke-width:1.35299;stroke-linejoin:round;stroke-miterlimit:1.1;stroke-dasharray:none"
       d="M 107.516,116.06 135,101.086"
       id="path8" />
    <path
       style="fill:none;stroke:#000200;stroke-width:1.35299;stroke-linejoin:round;stroke-miterlimit:1.1;stroke-dasharray:none"
       d="m 99.6506,132.154 41.8634,-1.235"
       id="path9" />
    <path
       style="fill:none;stroke:#000200;stroke-width:1.35299;stroke-linejoin:round;stroke-miterlimit:1.1;stroke-dasharray:none"
       d="m 101.595,140.906 43.791,-11.49"
       id="path11" />
    <path
       style="fill:#f39200;fill-opacity:1;stroke:#000200;stroke-width:4.60856;stroke-linejoin:round;stroke-miterlimit:1.1;stroke-dasharray:none"
       d="m 384.289,475.5 c -0.544,-2.576 -6.538,-13.347 -8.662,-23.397 l 4.082,-2.955 -0.675,-5.542 c 16.352,-4.135 129.962,-26.684 130.405,-26.239 0.767,0.772 6.237,40.363 5.872,40.678 -0.15,0.129 -21.074,13.013 -58.25,21.527 -37.175,8.513 -76.212,14.125 -76.802,14.321 -0.665,0.22 16.03,-5.579 15.417,-8.479 z"
       id="path13"
       transform="scale(0.26458333)" />
    <path
       style="fill:#f39200;fill-opacity:1;stroke:#000200;stroke-width:1.35299;stroke-linejoin:round;stroke-miterlimit:1.1;stroke-dasharray:none"
       d="M 86.3349,61.6188 7.67117,66.4369"
       id="path14" />
    <path
       style="fill:#f39200;fill-opacity:1;stroke:#000200;stroke-width:1.35299;stroke-linejoin:round;stroke-miterlimit:1.1;stroke-dasharray:none"
       d="M 88.4733,80.6288 8.50673,132.752"
       id="path15" />
    <path
       style="fill:#f39200;fill-opacity:1;stroke:#000200;stroke-width:1.35299;stroke-linejoin:round;stroke-miterlimit:1.1;stroke-dasharray:none"
       d="m 133.604,62.0756 37.63,-31.834"
       id="path16" />
    <path
       style="fill:#f39200;fill-opacity:1;stroke:#000200;stroke-width:1.35299;stroke-linejoin:round;stroke-miterlimit:1.1;stroke-dasharray:none"
       d="m 131.235,69.6571 74.682,-2.3994"
       id="path17" />
    <path
       style="fill:none;fill-opacity:1;stroke:#000200;stroke-width:1.35299;stroke-linejoin:round;stroke-miterlimit:1.1;stroke-dasharray:none"
       d="M 85.2758,70.8464 94.125,32.3058 132.839,57.8482"
       id="path18" />
    <path
       style="fill:#f39200;fill-opacity:1;stroke:#000200;stroke-width:8.53107;stroke-linejoin:round;stroke-miterlimit:1.1;stroke-dasharray:none"
       d="M 13.9792,474.304 C 10.5624,460.65 -3.95137,428.226 -3.97543,401.168 -4.0128,359.137 19.5008,320.558 31.3641,284.146 L 20.8392,278.619 140.606,259.785 c 61.861,-0.215 121.473,4.467 134.957,4.453 l 17.047,9.77 19.42,21.734 c 6.595,16.401 9.853,18.092 8.373,19.471 -1.966,1.833 -306.885,162.523 -308.359,162.523 -0.4332,0 6.8961,-6.513 6.3795,-8.578 z"
       id="path19"
       transform="scale(0.26458333)" />
    <path
       style="fill:#f39200;fill-opacity:1;stroke:#000200;stroke-width:8.53107;stroke-linejoin:round;stroke-miterlimit:1.1;stroke-dasharray:none"
       d="m 477.518,241.497 c -2.532,-11.524 -2.947,-29.451 -2.61,-29.788 0.337,-0.337 59.348,-8.799 113.016,-34.486 l 100.03,-63.612 2.791,13.531 c 13.616,14.605 37.692,41.892 49.992,62.448 9.839,16.442 17.176,64.817 20.421,75.329 l 3.934,4.452 -136.555,-17.627 -140.791,10.331 z"
       id="path20"
       transform="scale(0.26458333)" />
    <path
       style="fill:#f39200;fill-opacity:1;stroke:#000200;stroke-width:7.94306;stroke-linejoin:round;stroke-miterlimit:1.1;stroke-dasharray:none"
       d="m 313.095,280.234 c -8.766,-21.998 -10.677,-28.173 -10.619,-29.027 0.088,-1.297 172.02,-64.286 173.213,-63.382 1.379,1.044 9.164,101.934 8.202,102.812 -0.655,0.599 -34.784,-1.76 -75.542,9.454 -40.759,11.213 -61.879,31.559 -64.105,32.405 -2.226,0.846 -6.567,-13.053 -7.211,-13.053 -0.645,0 -17.531,-1.885 -26.298,-23.883 z"
       id="path21"
       transform="scale(0.26458333)" />
    <path
       style="fill:#006b94;fill-opacity:1;stroke:#000200;stroke-width:7.94306;stroke-linejoin:round;stroke-miterlimit:1.1;stroke-dasharray:none"
       d="m 541.255,655.036 -155.14,-26.292 181.647,-56.66 c 106.444,-31.775 194.401,-61.685 194.772,-61.315 1.289,1.29 -1.111,39.896 -11.271,60.784 -16.704,34.346 -42.129,66.796 -64.983,91.7 l -1.92,6.825 z"
       id="path22"
       transform="scale(0.26458333)" />
    <path
       style="fill:#006b94;fill-opacity:1;stroke:#000200;stroke-width:7.94306;stroke-linejoin:round;stroke-miterlimit:1.1;stroke-dasharray:none"
       d="m 350.944,781.529 c -2.563,-0.355 7.748,5.081 0.914,4.178 C 254.905,772.898 148.609,723.165 86.5564,646.021 72.0465,627.982 67.5603,597.495 68.8165,596.239 c 0.4685,-0.469 134.8975,25.429 302.5855,46.477 167.688,21.048 294.927,22.297 296.175,22.293 1.248,-0.004 -6.936,5.618 -13.242,11.385 -58.984,53.936 -113.601,103.483 -194.341,117.148 -14.084,2.384 -90.609,-0.556 -102.357,-2.183 z"
       id="path23"
       transform="scale(0.26458333)" />
    <path
       style="fill:#006b94;fill-opacity:1;stroke:#000200;stroke-width:7.94306;stroke-linejoin:round;stroke-miterlimit:1.1;stroke-dasharray:none"
       d="m 562.771,554.611 c -45.948,-122.409 -98.121,-268.537 -97.17,-269.39 0.699,-0.628 9.275,-1.811 15.075,-3.343 5.8,-1.532 12.426,1.164 12.826,0.517 0.4,-0.648 7.51,6.489 6.297,1.287 l -3.434,-26.516 143.811,3.603 127.606,2.161 2.861,15.293 c 5.148,16.59 5.778,46.034 9.076,65.864 4.368,26.265 6.516,82.813 1.865,109.535 -3.307,18.997 -11.967,45.505 -13.568,47.106 -0.672,0.672 -183.774,56.141 -194.523,58.904 -2.664,0.684 -6.108,2.353 -7.161,-0.454 z"
       id="path24"
       transform="scale(0.26458333)" />
    <path
       style="fill:#009cb4;fill-opacity:1;stroke:#000200;stroke-width:7.94306;stroke-linejoin:round;stroke-miterlimit:1.1;stroke-dasharray:none"
       d="M 207.286,600.813 C 124.418,590.262 65.2816,585.867 64.382,585.825 62.3039,585.728 44.1952,567.427 36.1894,547.261 29.3042,529.919 7.46237,483.193 8.13484,479.711 8.37879,478.448 81.0549,455.189 165.026,410.449 l 156.981,-83.706 2.892,4.337 c 1.906,4.177 -8.802,8.956 -8.007,8.956 0.795,0 14.432,-4.836 19.689,-6.472 6.865,-2.137 8.657,-5.965 9.079,-4.665 2.477,7.636 61.637,292.779 61.058,294.288 -0.908,2.368 -31.311,5.064 -37.518,4.844 -2.444,-0.087 -85.18,-9.468 -168.048,-20.019 z"
       id="path25"
       transform="scale(0.26458333)" />
    <path
       style="fill:#009cb4;fill-opacity:1;stroke:#000200;stroke-width:7.94306;stroke-linejoin:round;stroke-miterlimit:1.1;stroke-dasharray:none"
       d="m 565.717,511.15 c -34.978,-94.348 -78.97,-207.03 -79.902,-211.689 -0.866,-4.328 -2.144,-1.773 5.629,-3.765 11.439,-2.932 16.787,-10.081 15.142,-18.598 -0.72,-3.728 -8.893,-13.005 -8.931,-13.65 -0.037,-0.646 63.153,10.949 136.342,11.167 l 134.037,4.911 -4.049,16.461 c 18.21,63.528 26.22,131.106 10.904,191.83 l 3.023,16.278 -100.312,33.628 c -51.686,15.561 -91.9,21.589 -93.608,21.633 -2.679,0.069 -16.182,-1.923 -33.429,-48.446 z"
       id="path26"
       transform="scale(0.26458333)" />
    <path
       style="fill:#009cb4;fill-opacity:1;stroke:#000200;stroke-width:7.94306;stroke-linejoin:round;stroke-miterlimit:1.1;stroke-dasharray:none"
       d="m 19.2867,253.077 c 0.5659,-1.923 6.8072,-13.347 11.1174,-23.172 19.6581,-44.808 47.4645,-68.47 82.9349,-103.94 C 176.621,62.6825 267.584,27.9937 358.541,16.066 385.492,12.5317 435.46,4.49027 462.092,9.09314 540.22,22.5964 601.42,64.1734 660.224,117.438 c 5.864,5.312 13.048,-4.68 12.617,-4.249 -0.43,0.431 -34.869,22.892 -87.362,47.969 -58.689,28.038 -106.071,54.098 -106.648,53.071 -0.517,-0.919 -7.684,-8.538 -8.778,-13.868 -1.093,-5.33 0.685,-7.956 -0.268,-8.737 -3.117,-2.555 -122.848,-58.153 -124.695,-57.407 -0.989,0.399 -6.572,25.921 -23.562,53.413 l -39.004,45.038 12.088,13.861 8.549,14.69 -107.233,0.386 c -49.987,0.566 -95.895,7.602 -119.7329,7.602 l -51.9145,-8.595 z"
       id="path27"
       transform="scale(0.26458333)" />
    <path
       style="fill:#95c11f;fill-opacity:1;stroke:#000200;stroke-width:7.94306;stroke-linejoin:round;stroke-miterlimit:1.1;stroke-dasharray:none"
       d="m 375.853,465.811 c -2.237,-10.89 2.274,-29.982 2.418,-30.106 0.578,-0.495 119.485,-13.088 125.277,-13.987 l 12.99,2.18 5.063,20.745 c 3.65,10.01 -4.033,4.109 -4.308,4.385 -0.493,0.493 -118.07,31.267 -119.73,31.272 -0.471,10e-4 -1.279,-12.416 -3.516,-23.306 z"
       id="path28"
       transform="scale(0.26458333)" />
    <path
       style="fill:#95c11f;fill-opacity:1;stroke:#000200;stroke-width:7.94306;stroke-linejoin:round;stroke-miterlimit:1.1;stroke-dasharray:none"
       d="m 370.475,381.723 c -0.301,-0.946 -18.301,-6.214 -21.202,-20.113 l -0.188,-28.526 16.237,-8.813 c 30.128,-8.575 102.427,-20.619 102.629,-20.302 0.136,0.214 -0.216,4.58 5.318,19.599 l 19.487,20.366 -71.574,31.323 c -39.203,9.603 -56.405,12.465 -56.761,11.349 z"
       id="path29"
       transform="scale(0.26458333)" />
    <path
       style="fill:#95c11f;fill-opacity:1;stroke:#000200;stroke-width:7.94306;stroke-linejoin:round;stroke-miterlimit:1.1;stroke-dasharray:none"
       d="m 414.049,615.292 c -1.222,-3.611 -4.821,-62.727 -4.404,-63.028 1.103,-0.796 126.738,-44.573 127.017,-44.138 0.842,1.311 26.836,64.622 26.559,64.855 -0.176,0.147 -29.44,0.753 -68.738,12.428 -39.298,11.675 -75.828,37.505 -78.216,38.286 -3.097,1.013 -4.663,-13.124 -5.118,-14.468 z"
       id="path30"
       transform="scale(0.26458333)" />
    <path
       style="fill:#95c11f;fill-opacity:1;stroke:#000200;stroke-width:7.94306;stroke-linejoin:round;stroke-miterlimit:1.1;stroke-dasharray:none"
       d="m 290.785,238.24 c 0,-1.03 69.073,-85.109 70.969,-87.145 1.037,-1.114 95.156,31.949 98.322,34.56 0.616,0.507 -37.739,22.716 -80.045,35.39 -87.614,26.248 -78.951,22.774 -78.951,21.563 z"
       id="path31"
       transform="scale(0.26458333)" />
    <path
       style="fill:#f39200;fill-opacity:1;stroke:#000200;stroke-width:7.94306;stroke-linejoin:round;stroke-miterlimit:1.1;stroke-dasharray:none"
       d="m 371.306,426.271 c 0,-0.393 3.443,0.796 0.788,-11.72 -2.655,-12.517 0.987,-27.969 1.72,-28.631 2.34,-2.114 105.019,-28.656 106.23,-27.383 0.639,0.672 15.234,7.367 19.888,19.949 7.212,19.499 0.5,30.898 -1.63,31.563 -1.374,0.429 -22.356,-0.364 -54.82,6.905 -32.464,7.269 -58.972,12.553 -60.894,13.006 -1.922,0.454 -1.559,14.884 -1.559,14.492 z"
       id="path32"
       transform="scale(0.26458333)" />
    <path
       style="fill:#f39200;fill-opacity:1;stroke:#000200;stroke-width:7.94194;stroke-linejoin:round;stroke-miterlimit:1.1;stroke-dasharray:none"
       d="m 403.605,548.87 c -2.219,-9.364 -12.783,-57.32 -12.517,-57.507 0.768,-0.543 128.871,-18.617 132.108,-18.984 3.396,-0.384 7.699,-13.543 15.209,6.508 4.479,11.96 -0.376,32.268 -0.484,32.421 -0.186,0.264 -120.374,22.184 -129.17,24.306 -3.537,0.854 -13.875,4.661 -14.602,1.593 z"
       id="path33"
       transform="scale(0.26458333)" />
  </g>
</svg>
